HIERARCHY
ROOT Hips
{
	OFFSET -3.958830 18.904000 13.208200
	CHANNELS 6 Xposition Yposition Zposition Zrotation Yrotation Xrotation 
	JOINT LHipJoint
	{
		OFFSET 0.000000 0.000000 0.000000
		CHANNELS 3 Zrotation Yrotation Xrotation
		JOINT LeftUpLeg
		{
			OFFSET 1.800000 -1.400000 0.085000
			CHANNELS 3 Zrotation Yrotation Xrotation
			JOINT LeftLeg
			{
				OFFSET 2.215000 -6.000000 0.000000
				CHANNELS 3 Zrotation Yrotation Xrotation
				JOINT LeftFoot
				{
					OFFSET 2.500000 -6.900000 0.000000
					CHANNELS 3 Zrotation Yrotation Xrotation
					JOINT LeftToeBase
					{
						OFFSET 0.200000 -0.500000 1.950000
						CHANNELS 3 Zrotation Yrotation Xrotation
						End Site
						{
							OFFSET 0.000000 0.000000 0.000000
						}
					}
				}
			}
		}
	}
	JOINT RHipJoint
	{
		OFFSET 0.000000 0.000000 0.000000
		CHANNELS 3 Zrotation Yrotation Xrotation
		JOINT RightUpLeg
		{
			OFFSET -1.800000 -1.400000 0.085000
			CHANNELS 3 Zrotation Yrotation Xrotation
			JOINT RightLeg
			{
				OFFSET -2.215000 -6.000000 0.000000
				CHANNELS 3 Zrotation Yrotation Xrotation
				JOINT RightFoot
				{
					OFFSET -2.500000 -6.900000 0.000000
					CHANNELS 3 Zrotation Yrotation Xrotation
					JOINT RightToeBase
					{
						OFFSET -0.200000 -0.500000 1.950000
						CHANNELS 3 Zrotation Yrotation Xrotation
						End Site
						{
							OFFSET 0.000000 0.000000 0.000000
						}
					}
				}
			}
		}
	}
	JOINT LowerBack
	{
		OFFSET 0.000000 0.000000 0.000000
		CHANNELS 3 Zrotation Yrotation Xrotation
		JOINT Spine
		{
			OFFSET -0.087000 1.940000 -0.288900
			CHANNELS 3 Zrotation Yrotation Xrotation
			JOINT Spine1
			{
				OFFSET 0.000000 1.950000 0.060000
				CHANNELS 3 Zrotation Yrotation Xrotation
				JOINT Neck
				{
					OFFSET 0.000000 0.000000 0.000000
					CHANNELS 3 Zrotation Yrotation Xrotation
					JOINT Neck1
					{
						OFFSET 0.000000 1.600000 0.340000
						CHANNELS 3 Zrotation Yrotation Xrotation
						JOINT Head
						{
							OFFSET 0.000000 1.667000 -0.240000
							CHANNELS 3 Zrotation Yrotation Xrotation
							End Site
							{
								OFFSET 0.000000 0.000000 0.000000
							}
						}
					}
				}
				JOINT LeftShoulder
				{
					OFFSET 0.000000 0.000000 0.000000
					CHANNELS 3 Zrotation Yrotation Xrotation
					JOINT LeftArm
					{
						OFFSET 2.700000 1.550000 -0.730000
						CHANNELS 3 Zrotation Yrotation Xrotation
						JOINT LeftForeArm
						{
							OFFSET 5.450000 0.000000 0.000000
							CHANNELS 3 Zrotation Yrotation Xrotation
							JOINT LeftHand
							{
								OFFSET 3.450000 0.000000 0.000000
								CHANNELS 3 Zrotation Yrotation Xrotation
								JOINT LeftHandIndex1
								{
									OFFSET 0.750000 0.000000 0.000000
									CHANNELS 3 Zrotation Yrotation Xrotation
									End Site
									{
										OFFSET 0.000000 0.000000 0.000000
									}
								}
							}
						}
					}
				}
				JOINT RightShoulder
				{
					OFFSET 0.000000 0.000000 0.000000
					CHANNELS 3 Zrotation Yrotation Xrotation
					JOINT RightArm
					{
						OFFSET -2.700000 1.550000 -0.730000
						CHANNELS 3 Zrotation Yrotation Xrotation
						JOINT RightForeArm
						{
							OFFSET -5.450000 0.000000 0.000000
							CHANNELS 3 Zrotation Yrotation Xrotation
							JOINT RightHand
							{
								OFFSET -3.450000 0.000000 0.000000
								CHANNELS 3 Zrotation Yrotation Xrotation
								JOINT RightHandIndex1
								{
									OFFSET -0.750000 0.000000 0.000000
									CHANNELS 3 Zrotation Yrotation Xrotation
									End Site
									{
										OFFSET 0.000000 0.000000 0.000000
									}
								}
							}
						}
					}
				}
			}
		}
	}
}
MOTION
Frames: 10
Frame Time: 0.016667
-3.943110 17.339190 -2.491460 -14.743618 0.144209 3.162719 -15.352480 13.700716 2.996904 0.411283 -1.663066 -14.777176 -4.964682 5.498771 15.201030 -0.231781 3.735385 3.393086 0.049070 -0.028240 -0.105830 18.055556 -10.852671 2.718432 1.798790 1.054418 -12.865164 -0.220665 -3.143904 16.453535 0.101395 -3.072597 3.423567 0.120390 0.465430 0.055250 -2.975573 -2.551001 -7.228429 0.564841 1.067775 9.990276 0.361006 1.616516 11.380016 0.482420 -4.308885 -11.183981 -10.633242 5.429649 35.820377 2.075050 0.842140 3.318680 6.953743 -14.940166 4.089929 18.356777 -16.137750 -3.998173 53.186141 -27.478891 -11.111496 -4.038888 3.068693 -0.027440 0.300460 -0.265150 0.176830 -7.246929 19.709101 5.624864 -28.360594 12.661363 -7.278635 -53.518878 26.921858 -11.063200 2.304764 -1.719766 -0.198720 0.225950 0.069350 0.030950 
-4.055420 17.140080 -2.524310 -13.745880 -0.683621 3.216305 -15.365354 13.686807 3.028945 -0.874235 -1.733240 -14.396839 -4.656491 5.532772 16.133121 -0.237918 3.796366 3.362409 0.072270 0.005140 -0.089520 18.048232 -10.881929 2.642090 0.546026 0.845873 -12.326364 0.572353 -3.417413 16.330064 0.090965 -3.168616 3.381223 0.149650 0.458270 0.067370 -2.936739 -2.539125 -7.163269 0.050550 1.367482 9.602445 0.340353 1.937714 11.603083 0.555495 -4.243274 -10.949570 -10.271441 5.589864 34.945625 1.656340 1.430130 2.532990 7.087905 -14.701132 3.955075 17.969596 -16.925737 -3.874226 55.222422 -29.237319 -12.448365 -4.041493 3.062241 -0.036830 0.312900 -0.264510 0.171050 -7.549247 19.506054 5.404866 -28.504504 13.172553 -7.303425 -52.181687 26.080661 -10.498085 2.292292 -1.744717 -0.192650 0.220440 0.068760 0.022640 
-4.156170 16.956810 -2.560660 -12.911298 -1.815092 2.563542 -15.364230 13.697754 3.043031 -1.610337 -1.898650 -14.507250 -4.274289 5.902383 19.126057 -0.217826 4.099868 3.254530 0.105540 0.055480 -0.071180 18.045361 -10.953254 2.561776 -0.368472 0.789550 -11.652048 0.788030 -3.704954 18.075904 0.061885 -3.415040 3.287577 0.199990 0.482350 0.085500 -2.916184 -2.489954 -7.092326 -0.369097 1.837805 10.161449 0.414972 2.469798 11.884074 0.504040 -4.036133 -10.319073 -9.466390 5.860934 33.658928 1.056130 2.296700 1.888180 6.077617 -14.425714 3.536507 18.373197 -17.913247 -3.883683 60.119322 -32.167865 -15.276575 -4.059800 3.018513 -0.067100 0.352000 -0.275530 0.184330 -6.531980 19.227405 4.970290 -28.453441 14.051273 -7.439875 -54.508632 27.461287 -11.786902 2.239263 -1.762282 -0.194080 0.232390 0.058440 0.023420 
-4.240440 16.811480 -2.594630 -12.450235 -2.339269 1.423384 -15.377531 13.754829 3.059246 -1.965964 -2.079841 -14.681150 -3.575394 6.154674 21.937742 -0.183551 4.407356 3.149284 0.100900 0.051450 -0.076690 18.023181 -10.982814 2.514120 -0.831147 0.785517 -10.636073 1.110796 -4.097432 20.253719 0.029462 -3.726068 3.183888 0.211910 0.509520 0.090550 -2.855940 -2.572831 -7.082040 -0.542897 2.102777 11.247214 0.726658 2.855946 12.212139 0.552022 -4.033000 -10.027080 -9.336081 6.333451 33.301035 0.583550 3.076000 2.434790 3.505073 -14.885048 3.493259 17.374279 -19.138079 -3.829914 68.466684 -36.011827 -20.480672 -4.064497 2.912266 -0.087260 0.384890 -0.299470 0.189520 -4.111849 19.784650 4.839010 -27.966795 14.299679 -7.639737 -59.815199 30.471835 -14.624016 2.176845 -1.735975 -0.207610 0.234770 0.062400 0.020420 
-4.314100 16.711330 -2.618050 -12.161834 -3.916221 0.409883 -15.373628 13.746318 3.069853 -1.989979 -2.303156 -15.119994 -3.399774 6.656524 25.081887 -0.124751 4.838257 2.996662 0.097470 0.059410 -0.090680 18.031431 -10.994325 2.501819 -0.558064 0.779796 -9.641432 0.664128 -4.113902 21.452912 0.008698 -3.915817 3.127133 0.233030 0.540410 0.087630 -2.843717 -2.558057 -7.070022 -0.461783 2.603491 12.090641 0.836809 3.565882 12.869401 0.414698 -4.289800 -9.684522 -9.735559 6.706152 33.015781 0.393210 3.413050 2.718450 0.751246 -14.714104 3.475887 13.857173 -21.065901 -3.175674 77.603199 -39.682165 -27.371878 -4.055687 2.772176 -0.113330 0.413720 -0.322390 0.197680 -1.208440 19.956837 4.707301 -25.335993 15.022374 -7.683565 -70.032638 33.695093 -20.172169 2.104510 -1.692602 -0.220420 0.251300 0.067550 0.026620 
-4.365430 16.665860 -2.643910 -11.819671 -6.377229 -0.186572 -15.351348 13.686187 3.090040 -2.115758 -2.541451 -15.878309 -3.316906 7.144041 27.925202 -0.145856 5.278640 2.815022 0.194140 0.172170 -0.032260 18.070780 -10.996290 2.471971 -0.185753 1.046021 -9.797316 -0.316572 -3.869217 23.054917 -0.029720 -4.046796 3.047558 0.338420 0.540740 0.116730 -2.893877 -2.470824 -7.007442 -0.023206 3.172780 12.934744 0.685339 4.383308 13.592907 0.057463 -4.985622 -8.687786 -10.513297 7.424338 30.753257 -0.127090 4.029750 0.128970 -2.363286 -13.160938 3.041251 7.479655 -24.121708 -1.364504 87.390263 -44.488312 -37.518904 -4.043370 2.599292 -0.115770 0.437640 -0.319060 0.208540 2.301123 19.102046 3.907863 -21.351777 17.613578 -7.068338 -83.537147 39.243835 -30.654246 1.938901 -1.599154 -0.220820 0.273960 0.054180 0.008860 
-4.407770 16.642770 -2.652550 -11.385735 -7.717943 -0.648597 -15.307210 13.613798 3.112305 -2.332147 -2.729649 -16.321577 -3.203511 7.441087 29.773819 -0.119729 5.560103 2.714800 0.232370 0.222660 -0.005400 18.125472 -11.037270 2.441757 -0.068397 1.124587 -9.752174 -1.223091 -3.644179 24.021472 -0.048072 -4.142379 3.007046 0.384180 0.546270 0.124770 -3.019634 -2.311954 -6.962551 1.108614 3.100401 13.036108 -0.315217 4.649191 14.962113 -0.128418 -5.610644 -8.368204 -11.693481 7.755017 30.517882 -1.052480 4.304190 -0.347010 -4.566994 -12.187920 3.102771 -1.514789 -28.080137 1.713724 95.391926 -48.696517 -48.529351 -4.031218 2.400578 -0.137450 0.458810 -0.322850 0.220010 4.590255 18.464404 3.714434 -14.032029 20.970084 -5.163700 -95.245330 44.035518 -43.443745 1.814944 -1.449404 -0.218870 0.284940 0.037080 0.008250 
-4.443530 16.639330 -2.631140 -11.289817 -8.250877 -0.474851 -15.295674 13.604511 3.091429 -2.652872 -2.748895 -16.522840 -2.309975 7.197332 30.437137 -0.141374 5.558038 2.689956 0.281800 0.282750 0.038790 18.147000 -11.041544 2.413678 -0.312639 1.140915 -9.934485 -0.947626 -3.786249 24.403465 -0.076482 -4.179560 2.970416 0.419540 0.510650 0.141450 -3.065480 -2.285582 -6.880966 1.800211 2.888806 11.970980 -0.415383 4.502779 16.365320 -0.113824 -5.850046 -8.346890 -12.382000 8.504513 31.208701 -1.544030 4.967080 -1.545270 -5.899892 -10.841097 3.640336 -15.098505 -31.953981 7.423614 102.172708 -53.696152 -62.174081 -4.012759 2.183081 -0.126880 0.447550 -0.291330 0.215460 5.805270 17.069767 3.478500 -3.804774 24.754914 -1.191436 -104.193325 50.539975 -59.565840 1.704698 -1.140449 -0.198510 0.277740 0.021400 -0.002540 
-4.473060 16.641680 -2.595940 -11.022264 -8.604267 -0.361269 -15.291805 13.632515 3.069047 -3.009620 -2.495147 -15.839456 -2.089077 7.008260 29.567275 -0.117997 5.380810 2.748143 0.261950 0.255200 0.033200 18.146452 -11.072419 2.391193 -0.735399 1.046140 -9.988896 -0.733484 -3.922079 24.316784 -0.081378 -4.157949 2.985426 0.373830 0.482900 0.141520 -3.064634 -2.257860 -6.835178 2.101078 2.483647 10.557201 -0.859800 4.195521 17.407469 0.610290 -5.748198 -9.217349 -12.772380 9.631727 33.882473 -1.461420 5.837080 -0.639870 -7.327632 -10.242337 5.091035 -29.738999 -32.544474 13.369186 106.471474 -62.258604 -79.168978 -4.029611 1.788111 -0.108270 0.422930 -0.268180 0.208450 6.024348 16.198609 3.710349 6.873598 27.286252 3.562584 -107.282883 60.017719 -74.905926 1.662458 -0.388469 -0.180040 0.249550 0.018770 -0.002690 
-4.506540 16.647050 -2.548590 -10.624140 -8.020996 0.085060 -15.308380 13.678664 3.045808 -3.242183 -2.232946 -15.206049 -1.928175 6.759608 28.205087 -0.140371 5.132565 2.819587 0.260860 0.232730 0.062630 18.126553 -11.071296 2.378063 -1.181458 0.885379 -9.818481 -0.092499 -4.159292 23.739454 -0.101380 -4.084745 3.004028 0.333910 0.418230 0.131040 -3.020273 -2.318790 -6.805632 1.827750 2.105048 9.712640 -0.693567 3.658174 16.220020 1.019008 -5.682944 -9.122433 -13.154795 10.330096 36.247171 -1.396880 6.073040 -1.084550 -10.191618 -10.219242 4.153478 -41.716544 -28.743809 6.693522 66.000482 -87.972544 -61.399417 -3.492844 0.776457 -0.041520 0.361130 -0.219650 0.187310 8.277822 15.832543 4.353494 16.964845 27.991257 6.217372 -102.914540 71.655157 -80.309308 1.402969 2.313289 -0.172320 0.233750 0.013300 -0.024780 
